<svg width="113" height="112" viewBox="0 0 113 112" fill="none" xmlns="http://www.w3.org/2000/svg">
<path d="M113 6.99312C113 7.25072 113 7.47158 113 7.72918C111.539 10.416 112.437 13.1398 113 15.8266C113 22.7091 113 29.555 113 36.4377C112.326 37.1003 111.725 37.91 110.901 38.3516C109.965 38.9037 109.515 39.3087 109.852 40.4864C110.038 41.0753 109.628 42.069 109.14 42.5474C107.941 43.7252 107.903 44.7927 108.989 46.044C110.863 48.1789 111.577 50.7183 111.501 53.4788C111.426 55.3559 111.313 57.2697 111.238 59.147C111.164 60.6559 111.313 62.2019 109.477 62.9012C109.364 62.9379 109.364 63.3059 109.289 63.674C110.601 63.674 111.801 63.674 112.962 63.674C112.962 78.6541 112.962 93.597 112.962 108.577C112.251 108.356 111.577 108.172 110.863 107.915C107.641 106.774 104.38 105.964 100.968 106.921C100.782 107.142 100.631 107.362 100.445 107.583C101.081 107.73 101.718 107.915 102.356 108.062C102.206 108.246 102.095 108.43 101.944 108.614C100.857 108.835 99.8068 109.313 98.758 109.276C95.4592 109.239 92.1247 109.276 88.8636 108.835C86.6888 108.54 84.8154 108.283 82.5296 108.835C79.8315 109.534 76.8321 109.129 73.9833 109.239C69.4871 109.387 64.8025 108.577 60.7167 111.337C60.3797 111.558 59.442 111.632 59.329 111.448C58.2803 109.865 56.5186 110.675 55.2069 110.16C52.7708 109.203 50.7469 109.203 49.2476 111.669C49.1726 111.779 48.9104 111.816 48.498 112C47.7485 111.117 46.8865 110.27 46.1744 109.276C45.4248 108.246 45.1249 106.516 43.326 108.135C43.2134 108.246 42.8387 108.099 42.6139 108.062C38.8659 107.547 35.193 106.884 31.37 107.326C28.4467 107.657 25.4107 107.362 22.4499 107.362C18.4771 107.326 14.5043 107.326 10.5314 107.326C8.58266 107.326 6.63371 107.547 4.75969 107.289C0.786852 106.774 0.711916 106.479 1.23667 102.615C1.27414 102.32 1.3116 101.989 1.3116 101.694C1.1992 97.241 0.936725 92.7505 0.974194 88.2971C0.974194 87.0089 1.72396 85.6839 2.21105 84.4325C2.511 83.586 3.14815 82.813 3.29802 81.9665C3.63524 79.6477 3.74765 77.3289 3.93519 75.0101C4.04759 73.6115 3.78531 72.397 2.39858 71.5136C1.83636 71.1455 1.38654 70.2254 1.3116 69.4893C1.01166 65.8823 0.861779 62.2019 0.636968 58.5949C4.19746 57.0858 4.7597 54.6198 2.77328 51.2705C2.06118 50.0559 1.57389 48.2524 1.9113 46.9642C2.69834 43.8726 2.28599 40.9279 1.38655 38.094C-0.262462 32.9412 -0.412544 27.9725 0.786841 22.7091C1.94876 17.6667 2.17358 12.5507 0.861785 7.39789C0.562038 6.22013 0.936715 4.78476 1.19919 3.49656C1.3116 3.05485 2.09865 2.46596 2.6234 2.42922C5.35939 2.28205 8.09537 2.17162 10.8314 2.20836C16.1909 2.20836 21.5505 2.31879 26.9101 2.42922C27.6971 2.42922 28.4841 2.68682 29.2712 2.87093C30.3207 3.12853 31.3325 3.5333 32.382 3.68067C33.3564 3.82784 34.4059 3.5333 35.3803 3.71742C39.8404 4.49022 43.4009 2.68682 46.6617 0C51.4215 0 56.144 0 60.903 0C61.8031 0.147172 62.7031 0.331285 63.7142 0.515201C63.5278 1.06734 63.3395 1.5458 63.1155 2.09794C63.4148 2.20836 63.6388 2.31879 63.9025 2.35554C65.5142 2.72356 67.576 2.02425 68.3987 4.34305C68.5117 4.63759 69.5247 4.8215 70.0858 4.78476C71.3605 4.71107 72.6352 4.45347 73.8723 4.26956C74.3956 0.809739 74.9963 0.220856 78.3685 0.368028C83.2413 0.55214 88.0766 0.883424 92.9494 1.17777C94.7852 1.2882 96.847 1.21451 97.184 4.15913C97.8203 3.68067 98.1217 3.05485 98.6074 2.57639C99.0197 2.17162 99.6204 1.72991 100.144 1.76665C102.356 1.91383 104.567 2.46596 106.741 2.35554C109.065 2.24511 110.377 4.0487 112.288 4.71107C112.738 4.89519 112.776 6.22013 113 6.99312ZM12.6304 21.6417C13.0051 22.1939 13.3051 22.8932 13.7922 23.4084C19.1517 28.9661 24.4738 34.5239 29.9083 40.0447C37.4417 47.7002 45.0499 55.3192 52.5833 63.0116C56.8561 67.3546 61.016 71.8081 65.2129 76.2248C69.15 80.4207 73.0099 84.6533 76.9827 88.7755C77.9561 89.8061 79.3062 90.8735 80.6186 91.0943C84.1037 91.6832 87.6642 91.9408 91.2247 92.0882C92.1247 92.1249 93.4728 91.3889 93.9228 90.6526C97.3346 84.9109 98.7957 78.5067 100.144 72.1025C100.257 71.624 99.9198 70.8143 99.5074 70.4462C98.2327 69.3789 96.8469 68.422 95.4592 67.4651C93.8475 66.324 92.1981 65.2198 90.513 64.1894C89.3889 63.4901 88.1519 62.9379 87.0259 62.2386C86.2388 61.7601 85.6401 61.0241 84.8531 60.5087C77.8451 55.9448 70.7975 51.4546 63.7895 46.8537C56.7435 42.2163 49.8473 37.3946 42.8012 32.7203C40.4774 31.1745 37.854 30.0335 35.4552 28.5614C34.5933 28.046 33.8812 27.2362 33.1691 26.5002C32.5694 25.9113 32.157 25.1383 31.4824 24.6966C28.7464 22.8564 25.9355 21.1633 23.237 19.3599C21.8502 18.4397 20.426 18.4765 18.9644 19.0653C16.8656 19.8751 14.8042 20.7585 12.6304 21.6417ZM21.2131 66.7658C19.7514 70.2254 18.3647 73.3907 17.0154 76.5929C16.0411 78.9117 14.9915 81.1935 14.3544 83.6227C14.1296 84.5062 14.5792 85.9783 15.2538 86.6408C17.0529 88.3708 19.1517 89.8061 21.1381 91.3519C21.9252 91.9408 22.7497 92.9347 23.5744 92.9347C26.4603 92.8979 29.3836 92.6771 32.232 92.2353C33.9936 91.9777 35.6801 91.3152 37.3667 90.7263C39.503 89.9902 41.6019 89.1436 43.9632 88.2603C36.3172 81.0463 28.8588 73.9797 21.2131 66.7658ZM66.9376 23.9973C69.1501 25.7272 71.0235 27.2362 72.9346 28.6718C77.6944 32.2051 82.4543 35.7752 87.2519 39.235C88.7129 40.3023 89.6506 39.7502 89.9123 38.0572C90.4753 34.8182 91.074 31.5793 91.7124 28.3773C92.4618 24.6966 92.3111 24.2181 89.2383 22.1571C86.6155 20.3905 83.9907 18.5501 80.6186 20.5009C80.4302 20.6111 80.1309 20.6111 79.9049 20.6481C75.7834 21.7154 71.6222 22.7828 66.9376 23.9973Z" fill="white"/>
</svg>
