<svg width="66" height="68" viewBox="0 0 66 68" fill="none" xmlns="http://www.w3.org/2000/svg">
<path d="M47.4388 0H18.5891C4.97937 0 0 5.10716 0 19.1236V48.8474C0 62.8697 4.97937 68 18.5891 68H47.4388C61.0206 68 66 62.8697 66 48.8474V19.1236C66 5.10151 61.0428 0 47.4388 0Z" fill="white"/>
<path fill-rule="evenodd" clip-rule="evenodd" d="M28.1685 41.0308L27.3701 42.8599H25.595L29.3853 33.9795H30.9204L34.7109 42.8599H32.8798L32.1095 41.0308H28.1795H28.1685ZM28.7993 39.4204H31.4453L30.1167 36.2455L28.7993 39.4204ZM56.9119 33.9852H58.6648V42.8655H56.9119V33.9852ZM50.0456 41.2551H54.8464V42.8655H48.3206V33.9852H54.6568V35.6243H50.0456V37.4303H53.2332V39.0695H50.0456V41.261V41.2551ZM45.0829 33.9852H46.9138L43.9163 42.8886H42.4369L40.4718 37.045L38.5069 42.8886H37.0722L34.0465 33.9852H35.9334L37.8427 40.1049L39.7797 33.9852H41.2145L43.1793 40.1049L45.0829 33.9852ZM22.949 33.9852H24.7019V39.0179C24.7019 41.56 23.3454 43.0323 20.956 43.0323C18.5668 43.0323 17.2661 41.5829 17.2661 39.0754V33.9967H19.019V39.0294C19.019 40.5248 19.7111 41.3242 20.9839 41.3242C22.2567 41.3242 22.949 40.5305 22.949 39.0869V33.9911V33.9852ZM13.0849 33.9852H14.8378V42.8886H13.0849V39.2535H9.13251V42.8886H7.37964V33.9852H9.13251V37.5628H13.0849V33.9852ZM33.0196 22.672C26.9403 22.672 22.0389 17.5934 22.0389 11.3589H23.5741C23.5741 16.7135 27.8222 21.0616 33.0196 21.0616C38.2167 21.0616 42.4648 16.7135 42.4648 11.3589H44C44 17.5818 39.0707 22.672 33.0196 22.672Z" fill="#777777"/>
</svg>
