<svg width="60" height="64" viewBox="0 0 60 64" fill="none" xmlns="http://www.w3.org/2000/svg">
<path fill-rule="evenodd" clip-rule="evenodd" d="M28.8001 64C15.2237 64 8.43526 64 4.21772 59.5013C0 55.0024 0 47.7614 0 33.2799V30.7199C0 16.2384 0 8.99761 4.21772 4.4987C8.43526 -4.84911e-07 15.2237 0 28.7999 0H31.1999C44.7763 0 51.5647 -4.84911e-07 55.7823 4.4987C60 8.99741 60 16.2384 60 30.7199V33.2799C60 47.7614 60 55.0024 55.7823 59.5013C51.5647 64 44.7763 64 31.1999 64H28.8001Z" fill="white"/>
<path d="M34.6956 39.4438C33.0791 39.013 31.9455 37.4705 31.9455 35.7014V14.8594C31.9455 12.85 33.7256 11.3762 35.5618 11.8656L47.1896 14.9638C48.8061 15.3945 49.9397 16.937 49.9397 18.7061V39.5483C49.9397 41.5575 48.1595 43.0313 46.3233 42.5419L34.6956 39.4438Z" fill="#777777"/>
<path d="M12.8089 49.0382C11.1922 48.6075 10.0588 47.065 10.0588 45.2959V24.4537C10.0588 22.4445 11.8388 20.9707 13.675 21.4601L25.3027 24.5582C26.9194 24.989 28.0528 26.5315 28.0528 28.3006V49.1426C28.0528 51.152 26.2727 52.6258 24.4367 52.1364L12.8089 49.0382Z" fill="#777777"/>
<path d="M23.7539 44.2395C22.1374 43.8087 21.0038 42.2662 21.0038 40.4972V19.6551C21.0038 17.6457 22.784 16.1719 24.6202 16.6613L36.2479 19.7595C37.8645 20.1902 38.9978 21.7327 38.9978 23.502V44.344C38.9978 46.3533 37.2179 47.827 35.3817 47.3378L23.7539 44.2395Z" fill="#777777"/>
<path d="M31.3652 46.2731C30.8559 46.135 30.4937 45.6546 30.4759 45.0944L29.9701 29.1774C29.8236 27.0707 28.3577 25.3954 26.8257 24.902C26.7397 24.8744 26.6478 24.9116 26.5969 24.9905C26.5452 25.0708 26.565 25.1819 26.6373 25.2415C27.0156 25.5537 28.0568 26.5731 28.0568 28.3315L28.0538 45.3782L31.3652 46.2731Z" fill="white"/>
<path d="M42.3105 41.4715C41.8016 41.3358 41.4388 40.8568 41.421 40.2977L40.9152 24.3819C40.7687 22.2752 39.3028 20.5999 37.7707 20.1063C37.6847 20.0789 37.593 20.1161 37.5421 20.195C37.4903 20.2751 37.5103 20.3862 37.5825 20.4458C37.9607 20.7582 39.0019 21.7776 39.0019 23.536L38.9989 40.5884L42.3105 41.4715Z" fill="white"/>
</svg>
