<svg width="462" height="152" viewBox="0 0 462 152" fill="none" xmlns="http://www.w3.org/2000/svg">
<g filter="url(#filter0_d_162_288)">
<path d="M37.4004 104.582H303.695L365.403 59.4274L326.432 30H339.535L371.81 54.4012L403.074 30H416.176L378.506 59.4274L422.005 92.2596H408.902L372.051 64.4536L336.837 87.7199L303.695 108.797H37.4004V104.582Z" fill="#8E1D1D"/>
</g>
<path d="M282.74 92.2596V57.2386H289.677V62.0722C290.448 61.0386 291.218 60.1773 291.989 59.4882C292.784 58.7991 293.808 58.2519 295.06 57.8466C296.337 57.4413 298.059 57.1575 300.227 56.9954C302.394 56.813 305.249 56.7218 308.789 56.7218V61.6162C304.02 61.6162 300.323 61.7581 297.698 62.0418C295.096 62.3256 293.23 62.812 292.098 63.501C290.966 64.1699 290.279 65.1021 290.038 66.2979C289.797 67.4936 289.677 69.0136 289.677 70.8579V92.2596H282.74Z" fill="white"/>
<path d="M273.021 81.8628C273.021 84.4772 272.551 86.5343 271.612 88.034C270.697 89.5338 269.288 90.6282 267.385 91.3173C265.482 92.0063 263.05 92.4421 260.087 92.6245C257.148 92.8271 253.644 92.9285 249.573 92.9285C244.925 92.9285 240.975 92.7258 237.723 92.3205C234.496 91.9354 231.882 91.1349 229.883 89.9188C227.908 88.6826 226.463 86.8383 225.548 84.386C224.657 81.9337 224.211 78.6606 224.211 74.5667C224.211 70.5945 224.644 67.4126 225.512 65.0211C226.403 62.6296 227.836 60.8259 229.811 59.6098C231.786 58.3938 234.375 57.5832 237.579 57.1778C240.806 56.7725 244.744 56.5698 249.393 56.5698C254.716 56.5698 259.124 56.884 262.616 57.5122C266.108 58.1405 268.71 59.3362 270.42 61.0995C272.154 62.8627 273.021 65.4467 273.021 68.8515V76.3604H231.184C231.208 78.9545 231.425 81.0319 231.834 82.5924C232.244 84.1529 233.063 85.3284 234.291 86.1188C235.519 86.9092 237.35 87.4362 239.783 87.6996C242.239 87.9428 245.503 88.0644 249.573 88.0644C253.235 88.0644 256.185 88.0036 258.425 87.882C260.689 87.7604 262.399 87.497 263.555 87.0916C264.736 86.666 265.53 86.0378 265.94 85.2068C266.349 84.3759 266.554 83.2612 266.554 81.8628H273.021ZM249.393 61.4339C245.467 61.4339 242.299 61.5555 239.891 61.7987C237.506 62.0419 235.688 62.5181 234.435 63.2275C233.183 63.9165 232.328 64.9501 231.87 66.3283C231.437 67.7064 231.208 69.5203 231.184 71.7699H266.373V68.8515C266.373 67.3923 266.169 66.1864 265.759 65.2339C265.374 64.2611 264.603 63.5011 263.447 62.9539C262.291 62.3864 260.581 61.9912 258.317 61.7683C256.077 61.5453 253.102 61.4339 249.393 61.4339Z" fill="white"/>
<path d="M191.803 92.9285C187.347 92.9285 183.578 92.6447 180.495 92.0773C177.436 91.5098 175.027 90.233 173.269 88.2468V92.2597H166.332V45.5649H173.269V61.221C175.027 59.2552 177.436 57.9885 180.495 57.421C183.578 56.8536 187.347 56.5698 191.803 56.5698C196.476 56.5698 200.426 56.7725 203.653 57.1778C206.905 57.5832 209.53 58.3938 211.529 59.6098C213.528 60.8258 214.986 62.6296 215.901 65.0211C216.816 67.4126 217.274 70.5944 217.274 74.5667C217.274 78.6606 216.816 81.9337 215.901 84.386C214.986 86.8383 213.528 88.6826 211.529 89.9188C209.53 91.1349 206.905 91.9354 203.653 92.3205C200.426 92.7258 196.476 92.9285 191.803 92.9285ZM210.337 74.5667C210.337 71.6686 210.156 69.348 209.795 67.6051C209.458 65.8621 208.699 64.5549 207.519 63.6835C206.339 62.7917 204.496 62.1939 201.991 61.8899C199.51 61.5858 196.114 61.4338 191.803 61.4338C187.877 61.4338 184.698 61.5858 182.265 61.8899C179.832 62.1939 177.966 62.7917 176.665 63.6835C175.364 64.5549 174.473 65.8621 173.991 67.6051C173.51 69.348 173.269 71.6686 173.269 74.5667C173.269 77.5662 173.51 79.9678 173.991 81.7716C174.473 83.5753 175.364 84.9332 176.665 85.8452C177.966 86.737 179.832 87.3348 182.265 87.6388C184.698 87.9226 187.877 88.0644 191.803 88.0644C196.114 88.0644 199.51 87.9226 201.991 87.6388C204.496 87.3348 206.339 86.737 207.519 85.8452C208.699 84.9332 209.458 83.5753 209.795 81.7716C210.156 79.9678 210.337 77.5662 210.337 74.5667Z" fill="white"/>
<path d="M32.0049 69.5202V68.3042C32.0049 64.1698 32.2457 60.7041 32.7275 57.9073C33.2092 55.0902 34.0401 52.8001 35.2204 51.0369C36.4006 49.2737 38.0023 47.9259 40.0255 46.9937C42.0728 46.0614 44.638 45.4331 47.721 45.1088C50.804 44.7643 54.5132 44.592 58.8487 44.592H73.4087C78.3704 44.592 82.5493 44.7947 85.9454 45.2C89.3656 45.5851 92.1114 46.3654 94.1828 47.5409C96.2783 48.6961 97.7957 50.4086 98.7351 52.6785C99.6744 54.9281 100.144 57.9175 100.144 61.6466H93.2073C93.2073 58.7079 92.8942 56.4279 92.268 54.8065C91.6417 53.1649 90.582 51.9793 89.0886 51.2497C87.6194 50.5201 85.6082 50.0742 83.0551 49.9121C80.502 49.7297 77.2865 49.6385 73.4087 49.6385H58.8487C55.4044 49.6385 52.502 49.7297 50.1416 49.9121C47.7812 50.0742 45.8543 50.4694 44.361 51.0977C42.8917 51.7057 41.7597 52.6785 40.9649 54.0161C40.1941 55.3537 39.6642 57.1777 39.3752 59.4881C39.0862 61.7986 38.9416 64.7372 38.9416 68.3042V69.5202C38.9416 72.9656 39.0862 75.8232 39.3752 78.0931C39.6642 80.3629 40.1941 82.1768 40.9649 83.5347C41.7597 84.8926 42.8917 85.9059 44.361 86.5747C45.8543 87.2435 47.7812 87.6793 50.1416 87.8819C52.502 88.0846 55.4044 88.1859 58.8487 88.1859H73.4087C77.2865 88.1859 80.502 88.115 83.0551 87.9731C85.6082 87.8313 87.6194 87.4158 89.0886 86.7267C90.582 86.0377 91.6417 84.8926 92.268 83.2915C92.8942 81.6702 93.2073 79.4003 93.2073 76.4819H100.144C100.144 80.2109 99.6744 83.1902 98.7351 85.4195C97.7957 87.6489 96.2783 89.331 94.1828 90.466C92.1114 91.5806 89.3656 92.3204 85.9454 92.6852C82.5493 93.05 78.3704 93.2324 73.4087 93.2324H58.8487C53.4294 93.2324 48.9734 92.9182 45.481 92.29C41.9885 91.682 39.2548 90.547 37.2797 88.8851C35.3287 87.2233 33.9558 84.8318 33.161 81.7107C32.3903 78.5896 32.0049 74.5261 32.0049 69.5202Z" fill="white"/>
<path d="M37.4004 108.797V104.582C39.8756 104.582 120.73 104.241 122.34 104.127C123.974 104.036 125.332 103.751 126.413 103.272C127.519 102.816 128.504 102.064 129.369 101.015C130.258 99.966 131.183 98.5068 132.144 96.6372V98.0964L131.432 99.0692L106.768 57.2385H114.698L134.451 91.7466L151.069 57.2385H159.179L138.128 98.826C137.191 100.673 136.218 102.28 135.208 103.648C134.223 105.016 132.974 106.156 131.46 107.068C129.97 107.98 128.078 108.364 125.651 108.797C123.224 109.253 41.2213 108.797 37.4004 108.797Z" fill="white"/>
<defs>
<filter id="filter0_d_162_288" x="0.000389099" y="-4.4" width="461.404" height="155.597" filterUnits="userSpaceOnUse" color-interpolation-filters="sRGB">
<feFlood flood-opacity="0" result="BackgroundImageFix"/>
<feColorMatrix in="SourceAlpha" type="matrix" values="0 0 0 0 0 0 0 0 0 0 0 0 0 0 0 0 0 0 127 0" result="hardAlpha"/>
<feOffset dx="1" dy="4"/>
<feGaussianBlur stdDeviation="19.2"/>
<feComposite in2="hardAlpha" operator="out"/>
<feColorMatrix type="matrix" values="0 0 0 0 0.725962 0 0 0 0 0 0 0 0 0 0 0 0 0 0.5 0"/>
<feBlend mode="normal" in2="BackgroundImageFix" result="effect1_dropShadow_162_288"/>
<feBlend mode="normal" in="SourceGraphic" in2="effect1_dropShadow_162_288" result="shape"/>
</filter>
</defs>
</svg>
