<svg width="29" height="33" viewBox="0 0 29 33" fill="none" xmlns="http://www.w3.org/2000/svg">
<path d="M16.3056 9.72389C16.747 9.18193 16.6584 8.39049 16.1076 7.95612C15.557 7.52177 14.7528 7.60898 14.3115 8.15094L16.3056 9.72389ZM5.25983 21.2767L6.22761 22.0978C6.23759 22.0864 6.24736 22.0749 6.25691 22.0631L5.25983 21.2767ZM4.96849 21.9776L3.69316 21.8956L3.69204 21.9194L4.96849 21.9776ZM4.72996 27.0464L3.45351 26.9883C3.45058 27.0506 3.45237 27.1132 3.4589 27.1754L4.72996 27.0464ZM6.07081 28.1984L6.11259 29.4553C6.19781 29.4524 6.28252 29.4414 6.36549 29.4219L6.07081 28.1984ZM11.1821 27.0062L11.4768 28.2299L11.4966 28.225L11.1821 27.0062ZM11.838 26.5971L12.8238 27.3974L12.8349 27.3838L11.838 26.5971ZM23.1255 14.7545C23.567 14.2126 23.4785 13.4211 22.9281 12.9866C22.3776 12.5521 21.5732 12.6391 21.1318 13.181L23.1255 14.7545ZM14.3168 8.15061C13.8753 8.69242 13.9636 9.4839 14.5143 9.91845C15.0647 10.353 15.8689 10.266 16.3105 9.72423L14.3168 8.15061ZM18.0192 5.61743L19.0161 6.40425C19.0328 6.38364 19.049 6.36251 19.0645 6.3409L18.0192 5.61743ZM20.7946 5.08087L21.6121 4.11432C21.5714 4.08099 21.5286 4.05018 21.4841 4.02206L20.7946 5.08087ZM24.6059 8.20299L25.5103 7.31458C25.4825 7.28723 25.4535 7.26117 25.4234 7.23644L24.6059 8.20299ZM24.5906 10.9495L23.6961 10.0514C23.66 10.0863 23.6259 10.1233 23.5941 10.1623L24.5906 10.9495ZM21.1318 13.181C20.69 13.7226 20.7784 14.5135 21.3287 14.9483C21.8791 15.3831 22.6837 15.2961 23.1255 14.7545L21.1318 13.181ZM16.5773 8.75106C16.4727 8.06419 15.8222 7.59081 15.1244 7.69374C14.4263 7.79666 13.9454 8.43691 14.05 9.12378L16.5773 8.75106ZM22.3007 15.2137C23 15.1203 23.4898 14.4865 23.3949 13.7984C23.2998 13.1102 22.656 12.6281 21.9566 12.7216L22.3007 15.2137ZM14.3115 8.15094L4.26274 20.4902L6.25691 22.0631L16.3056 9.72389L14.3115 8.15094ZM4.29205 20.4555C3.93876 20.8587 3.72838 21.3643 3.69316 21.8956L6.24359 22.0594C6.24265 22.0735 6.23705 22.0871 6.22761 22.0978L4.29205 20.4555ZM3.69204 21.9194L3.45351 26.9883L6.00641 27.1046L6.24494 22.0358L3.69204 21.9194ZM3.4589 27.1754C3.59804 28.5032 4.75702 29.4989 6.11259 29.4553L6.02904 26.9415C6.02358 26.9417 6.02091 26.9408 6.01917 26.9401C6.01674 26.9393 6.01352 26.9376 6.01023 26.9348C6.00692 26.9319 6.00479 26.9291 6.00358 26.9269C6.00271 26.9252 6.00159 26.9227 6.00103 26.9173L3.4589 27.1754ZM6.36549 29.4219L11.4768 28.2299L10.8873 25.7825L5.77613 26.9747L6.36549 29.4219ZM11.4966 28.225C12.0171 28.0949 12.482 27.8052 12.8238 27.3974L10.8522 25.7968C10.8563 25.7921 10.8616 25.7887 10.8675 25.7872L11.4966 28.225ZM12.8349 27.3838L23.1255 14.7545L21.1318 13.181L10.8411 25.8103L12.8349 27.3838ZM16.3105 9.72423L19.0161 6.40425L17.0223 4.83063L14.3168 8.15061L16.3105 9.72423ZM19.0645 6.3409C19.3006 6.01038 19.7594 5.92166 20.1051 6.13969L21.4841 4.02206C19.986 3.07728 17.9976 3.46169 16.974 4.89398L19.0645 6.3409ZM19.9772 6.04742L23.7884 9.16954L25.4234 7.23644L21.6121 4.11432L19.9772 6.04742ZM23.7016 9.09142C23.8309 9.219 23.9031 9.39221 23.9021 9.5725L26.4577 9.58632C26.4625 8.73501 26.1214 7.91712 25.5103 7.31458L23.7016 9.09142ZM23.9021 9.5725C23.9012 9.75278 23.827 9.92519 23.6961 10.0514L25.485 11.8477C26.1028 11.2518 26.4529 10.4376 26.4577 9.58632L23.9021 9.5725ZM23.5941 10.1623L21.1318 13.181L23.1255 14.7545L25.5871 11.7368L23.5941 10.1623ZM14.05 9.12378C14.6451 13.0328 18.3209 15.7459 22.3007 15.2137L21.9566 12.7216C19.3619 13.0685 16.9654 11.2996 16.5773 8.75106L14.05 9.12378Z" fill="white"/>
</svg>
