<svg width="51" height="48" viewBox="0 0 51 48" fill="none" xmlns="http://www.w3.org/2000/svg">
<path d="M25.4709 47.3635C21.015 47.3635 17.2456 47.0798 14.1625 46.5123C11.1036 45.9448 8.69503 44.668 6.93676 42.6819V46.6947H0V0H6.93676V15.6561C8.69503 13.6902 11.1036 12.4236 14.1625 11.8561C17.2456 11.2886 21.015 11.0049 25.4709 11.0049C30.1436 11.0049 34.0937 11.2075 37.3212 11.6129C40.5728 12.0182 43.1982 12.8289 45.1973 14.0449C47.1965 15.2609 48.6537 17.0646 49.5689 19.4561C50.4842 21.8476 50.9418 25.0295 50.9418 29.0018C50.9418 33.0957 50.4842 36.3688 49.5689 38.8211C48.6537 41.2733 47.1965 43.1176 45.1973 44.3539C43.1982 45.5699 40.5728 46.3704 37.3212 46.7555C34.0937 47.1609 30.1436 47.3635 25.4709 47.3635ZM44.0051 29.0018C44.0051 26.1036 43.8244 23.7831 43.4631 22.0401C43.1259 20.2972 42.3672 18.99 41.187 18.1185C40.0068 17.2268 38.1642 16.6289 35.6593 16.3249C33.1784 16.0209 29.7823 15.8689 25.4709 15.8689C21.5449 15.8689 18.3656 16.0209 15.9329 16.3249C13.5002 16.6289 11.6335 17.2268 10.3329 18.1185C9.03224 18.99 8.14106 20.2972 7.65934 22.0401C7.17762 23.7831 6.93676 26.1036 6.93676 29.0018C6.93676 32.0013 7.17762 34.4029 7.65934 36.2066C8.14106 38.0104 9.03224 39.3683 10.3329 40.2803C11.6335 41.172 13.5002 41.7699 15.9329 42.0739C18.3656 42.3576 21.5449 42.4995 25.4709 42.4995C29.7823 42.4995 33.1784 42.3576 35.6593 42.0739C38.1642 41.7699 40.0068 41.172 41.187 40.2803C42.3672 39.3683 43.1259 38.0104 43.4631 36.2066C43.8244 34.4029 44.0051 32.0013 44.0051 29.0018Z" fill="white"/>
</svg>
