<svg width="69" height="49" viewBox="0 0 69 49" fill="none" xmlns="http://www.w3.org/2000/svg">
<path d="M0 24.9282V23.7122C0 19.5777 0.24086 16.1121 0.722579 13.3153C1.2043 10.4982 2.03526 8.20806 3.21548 6.44484C4.39569 4.68163 5.99741 3.33389 8.02063 2.40162C10.0679 1.46934 12.6331 0.841072 15.7161 0.516804C18.7991 0.172268 22.5083 0 26.8438 0H41.4038C46.3655 0 50.5444 0.202668 53.9405 0.608004C57.3607 0.993073 60.1065 1.77335 62.1779 2.94882C64.2734 4.10403 65.7908 5.81657 66.7302 8.08645C67.6695 10.3361 68.1392 13.3254 68.1392 17.0545H61.2024C61.2024 14.1158 60.8893 11.8358 60.2631 10.2145C59.6369 8.57286 58.5771 7.38725 57.0837 6.65764C55.6145 5.92804 53.6033 5.48217 51.0502 5.32004C48.4971 5.13763 45.2816 5.04643 41.4038 5.04643H26.8438C23.3995 5.04643 20.4972 5.13763 18.1367 5.32004C15.7763 5.48217 13.8494 5.87737 12.3561 6.50564C10.8869 7.11365 9.75482 8.08645 8.95998 9.42406C8.18923 10.7617 7.65934 12.5857 7.37031 14.8961C7.08127 17.2065 6.93676 20.1452 6.93676 23.7122V24.9282C6.93676 28.3735 7.08127 31.2311 7.37031 33.501C7.65934 35.7709 8.18923 37.5848 8.95998 38.9427C9.75482 40.3005 10.8869 41.3139 12.3561 41.9827C13.8494 42.6515 15.7763 43.0872 18.1367 43.2899C20.4972 43.4926 23.3995 43.5939 26.8438 43.5939H41.4038C45.2816 43.5939 48.4971 43.523 51.0502 43.3811C53.6033 43.2392 55.6145 42.8238 57.0837 42.1347C58.5771 41.4456 59.6369 40.3005 60.2631 38.6995C60.8893 37.0781 61.2024 34.8082 61.2024 31.8898H68.1392C68.1392 35.6189 67.6695 38.5981 66.7302 40.8275C65.7908 43.0568 64.2734 44.739 62.1779 45.8739C60.1065 46.9886 57.3607 47.7283 53.9405 48.0931C50.5444 48.4579 46.3655 48.6403 41.4038 48.6403H26.8438C21.4245 48.6403 16.9686 48.3262 13.4761 47.6979C9.98363 47.0899 7.24988 45.955 5.27483 44.2931C3.32386 42.6312 1.95096 40.2397 1.15613 37.1186C0.385375 33.9976 0 29.9341 0 24.9282Z" fill="white"/>
</svg>
