<svg width="55" height="62" viewBox="0 0 55 62" fill="none" xmlns="http://www.w3.org/2000/svg">
<path d="M53.9523 28.7564L42.8176 22.2399L33.6585 31.2202L42.0304 39.4248L53.9523 32.4428C54.2719 32.2574 54.5373 31.9892 54.7213 31.6662C54.9054 31.3429 55.0015 30.9758 55 30.6027C55.0025 30.2284 54.9071 29.8603 54.723 29.5359C54.5388 29.2113 54.2728 28.9423 53.9523 28.7564ZM40.9276 21.132L28.6747 13.9576L1.82264 0L32.1514 29.74L40.9276 21.132ZM2.26667 62L28.7206 47.2199L40.1404 40.5325L32.1514 32.7005L2.26667 62ZM0.0306728 1.20401L0 61.2643L30.6413 31.2202L0.0306728 1.20401Z" fill="white"/>
</svg>
