<svg width="49" height="37" viewBox="0 0 49 37" fill="none" xmlns="http://www.w3.org/2000/svg">
<path d="M48.8102 25.293C48.8102 27.9074 48.3405 29.9645 47.4012 31.4642C46.4859 32.964 45.0769 34.0584 43.1741 34.7474C41.2713 35.4365 38.8386 35.8722 35.876 36.0546C32.9376 36.2573 29.4331 36.3586 25.3625 36.3586C20.7139 36.3586 16.7638 36.156 13.5122 35.7506C10.2847 35.3656 7.67138 34.565 5.67225 33.349C3.6972 32.1128 2.25204 30.2685 1.33677 27.8162C0.44559 25.3639 0 22.0908 0 17.9969C0 14.0246 0.433547 10.8427 1.30064 8.45126C2.19182 6.05977 3.62494 4.25603 5.59999 3.04002C7.57504 1.82401 10.1643 1.01334 13.3677 0.608004C16.5952 0.202668 20.5333 0 25.1819 0C30.5049 0 34.9126 0.314135 38.4051 0.942406C41.8975 1.57068 44.4988 2.76642 46.2089 4.52963C47.9431 6.29284 48.8102 8.87686 48.8102 12.2817V19.7905H6.97289C6.99697 22.3847 7.21375 24.462 7.62321 26.0226C8.03267 27.5831 8.85159 28.7586 10.08 29.549C11.3084 30.3394 13.1389 30.8663 15.5716 31.1298C18.0283 31.373 21.292 31.4946 25.3625 31.4946C29.0236 31.4946 31.9741 31.4338 34.2141 31.3122C36.4782 31.1906 38.1883 30.9271 39.3444 30.5218C40.5246 30.0962 41.3195 29.4679 41.7289 28.637C42.1384 27.8061 42.3431 26.6914 42.3431 25.293H48.8102ZM25.1819 4.86403C21.2559 4.86403 18.0886 4.98563 15.68 5.22884C13.2955 5.47204 11.477 5.94831 10.2245 6.65765C8.97202 7.34672 8.11697 8.38032 7.65934 9.75847C7.22579 11.1366 6.99697 12.9505 6.97289 15.2001H42.1625V12.2817C42.1625 10.8225 41.9578 9.6166 41.5483 8.66406C41.1629 7.69125 40.3922 6.93125 39.236 6.38404C38.0799 5.81657 36.3698 5.42137 34.1057 5.19844C31.8657 4.9755 28.8911 4.86403 25.1819 4.86403Z" fill="white"/>
</svg>
