<svg width="122" height="52" viewBox="0 0 122 52" fill="none" xmlns="http://www.w3.org/2000/svg">
<path d="M0 51.5588V47.3433C2.47517 47.3433 83.3295 47.0025 84.9395 46.8885C86.5736 46.7973 87.9314 46.5123 89.0127 46.0335C90.1181 45.5775 91.1034 44.8251 91.9685 43.7763C92.8576 42.7275 93.7828 41.2683 94.7441 39.3987V40.8579L94.0316 41.8307L69.3676 0H77.2977L97.051 34.508L113.668 0H121.779L100.728 41.5875C99.7905 43.4343 98.8173 45.0417 97.808 46.4097C96.8227 47.7777 95.5731 48.9177 94.0592 49.8297C92.5693 50.7417 90.6781 51.1255 88.251 51.5588C85.8239 52.0148 3.82089 51.5588 0 51.5588Z" fill="white"/>
</svg>
