<svg width="249" height="115" viewBox="0 0 249 115" fill="none" xmlns="http://www.w3.org/2000/svg">
<path fill-rule="evenodd" clip-rule="evenodd" d="M80.4882 114.213C80.5342 113.507 80.5805 112.798 80.8533 112.244C80.9652 112.024 81.0783 111.805 81.191 111.587C82.4288 109.189 83.6287 106.863 82.8915 103.8C82.7475 103.249 83.1593 102.513 83.5756 101.77C83.7793 101.406 83.9841 101.04 84.1251 100.693C85.0809 98.4841 86.028 96.2753 86.9734 94.0704C88.3621 90.8317 89.7472 87.6015 91.1513 84.392C91.2424 84.1815 91.3318 83.9586 91.4227 83.7311C91.8133 82.7554 92.2353 81.7014 92.975 81.2258C97.5327 77.9677 97.9367 73.0653 98.3416 68.1504C98.4323 67.0502 98.5229 65.9493 98.6603 64.8663C98.7139 64.4557 98.731 64.0216 98.7483 63.587C98.8168 61.8497 98.8858 60.105 101.288 59.8235C101.782 58.73 102.275 57.6398 102.768 56.5516C104.257 53.2639 105.737 49.9932 107.188 46.689C107.295 46.4547 106.813 45.6924 106.437 45.3991C104.667 44.1091 104.775 42.4088 105.418 40.5323C105.805 39.4419 106.169 38.3343 106.533 37.2259C107.127 35.4144 107.723 33.6003 108.422 31.8543C108.58 31.421 109.09 31.1159 109.583 30.8205C109.758 30.716 109.93 30.6129 110.084 30.5057C110.415 30.2204 110.779 29.9598 111.143 29.6996C111.9 29.1583 112.653 28.6196 113.088 27.867C113.744 26.7269 114.234 25.4964 114.724 24.2659C115.116 23.2813 115.507 22.2967 115.984 21.3584C118.237 16.9022 121.026 13.208 125.746 13.6185C125.746 12.6308 125.715 11.6649 125.687 10.7195C125.62 8.5784 125.556 6.54084 125.854 4.5886C126.068 3.24003 127.462 1.71547 128.641 1.07037C134.112 -1.80275 141.623 1.36352 143.874 7.52031C144.315 8.72119 144.329 10.1406 144.345 11.7226C144.351 12.4582 144.359 13.2287 144.41 14.029C147.719 13.9201 151.1 14.0538 154.539 14.1899C160.357 14.4202 166.341 14.657 172.409 13.7357C172.409 13.7357 172.57 14.4394 172.731 15.2602H179.113C179.157 15.3424 179.202 15.4197 179.247 15.4952C179.359 15.6893 179.465 15.8701 179.543 16.0811C179.38 16.1943 179.221 16.3163 179.062 16.4386C178.644 16.7601 178.224 17.0839 177.719 17.2539C177.432 17.3584 177.126 17.2768 176.814 17.1933C176.598 17.1361 176.38 17.0779 176.162 17.0779C173.053 17.0779 172.462 17.8402 172.784 21.4756H155.299V33.6134C152.94 33.9651 150.364 34.3757 147.63 34.8446C145.645 39.0665 142.373 40.1219 138.19 37.6591C137.599 37.3074 136.688 37.1314 136.097 37.366C135.816 37.4983 135.744 38.1603 135.681 38.7551C135.661 38.9513 135.641 39.1409 135.614 39.3011C135.516 39.7842 135.459 40.2948 135.4 40.8025C135.268 41.9581 135.137 43.1006 134.542 43.8745C133.868 44.8072 133.428 45.9 132.988 46.996C132.236 48.8636 131.48 50.7406 129.554 51.849C129.071 52.1424 129.501 55.3672 130.198 56.8918C132.384 61.4656 134.823 65.9012 137.256 70.3211C137.568 70.8874 137.878 71.4539 138.19 72.0199C140.174 75.5967 140.496 79.2321 138.994 83.1021C137.929 85.7967 136.89 88.5015 135.852 91.2037C134.383 95.028 132.918 98.8485 131.378 102.628C131.038 103.446 130.481 104.145 129.807 104.996C129.416 105.488 128.986 106.03 128.535 106.674C130.948 108.022 133.413 109.37 136.095 110.836L136.097 110.837C136.965 113.26 135.235 113.979 133.513 114.695C133.32 114.777 133.124 114.858 132.933 114.941H117.432C117.653 113.7 117.869 112.457 118.085 111.214C119.969 100.371 121.846 89.5749 126.657 80.053C126.266 79.5854 125.862 79.1374 125.465 78.6957L125.463 78.6953C124.664 77.808 123.887 76.9466 123.279 76.007C122.332 74.5328 121.431 73.008 120.527 71.4777C119.741 70.1478 118.953 68.8137 118.13 67.5048C117.808 66.9771 117.164 66.3908 116.574 66.3322C116.252 66.2736 115.663 67.0945 115.448 67.6222C114.697 69.3811 113.958 71.1467 113.219 72.9123C111.741 76.4436 110.263 79.9748 108.69 83.4538C107.832 85.4475 106.652 87.3237 105.365 89.0243C104.87 89.6852 104.377 90.3486 103.883 91.0124C101.003 94.8839 98.1107 98.7721 94.9058 102.276C91.5267 105.97 90.7758 110.192 91.2049 115H80.4242C80.4536 114.744 80.4709 114.479 80.4882 114.213ZM249 32.1474C248.725 32.8572 248.444 33.5671 248.161 34.2779C247.394 36.2097 246.622 38.1503 245.997 40.1219C243.904 46.5131 241.491 48.5067 235.322 48.4482L183.19 47.9204C182.224 47.9204 181.258 47.9204 180.078 48.6241C181.688 49.3864 183.296 50.1487 185.28 51.0867C184.716 52.7309 184.154 54.404 183.552 56.1867C183.296 56.947 183.033 57.7271 182.76 58.5335H188.445C191.896 58.5335 195.346 58.5139 198.798 58.4945C205.697 58.4553 212.598 58.4163 219.5 58.5335C221.967 58.5921 224.757 59.1198 226.902 60.4686C231.943 63.5763 233.928 68.912 231.943 74.9516C229.959 80.9324 227.599 86.8546 224.596 92.3077C220.84 99.1682 214.673 102.686 207.378 102.745C193.321 102.913 179.235 102.931 165.161 102.948C159.531 102.956 153.897 102.963 148.274 102.98C147.966 102.98 147.658 102.919 147.153 102.821C146.953 102.781 146.723 102.736 146.45 102.686C147.033 101.162 147.615 99.703 148.188 98.2725C148.826 96.6767 149.449 95.116 150.042 93.5391C152.724 86.4443 152.993 86.2683 160.073 86.2097C163.908 86.2097 167.743 86.206 171.578 86.2024C183.082 86.1913 194.586 86.1803 206.092 86.2683C208.183 86.2683 209.524 86.0923 210.115 83.3952C210.506 81.6809 211.207 80.044 211.946 78.313C212.319 77.4391 212.704 76.5407 213.063 75.5965C212.727 75.5749 212.407 75.5455 212.093 75.5167C211.559 75.4677 211.052 75.4207 210.542 75.4207C206.989 75.4207 203.429 75.4272 199.868 75.4336H199.861C192.728 75.4468 185.586 75.4597 178.469 75.4207C176.27 75.4207 173.964 75.4207 171.873 74.8342C165.061 73.0753 161.359 65.4526 163.827 58.3575C165.383 53.9013 167.099 49.5622 169.084 45.2819C173.214 36.3106 180.131 31.7369 189.303 31.6197C204.144 31.5317 219.076 31.5427 234.03 31.5536C239.018 31.5574 244.01 31.5609 249 31.5609V32.1474ZM91.6033 32.844C91.6799 32.4832 91.7581 32.1134 91.8488 31.7367C91.3928 31.7091 91.0203 31.6683 90.698 31.6329C90.3379 31.5935 90.04 31.5607 89.757 31.5607C72.3794 31.5021 55.0016 31.5021 37.6238 31.5607C35.8537 31.5607 34.0303 31.7367 32.3138 32.1472C26.5749 33.4372 21.2649 36.1344 18.6904 41.9394C12.4153 56.1879 6.51542 70.6709 0.883712 85.2127C-2.28087 93.4803 3.45821 102.393 11.6644 102.862C12.8711 102.95 14.0779 102.939 15.2846 102.928C15.687 102.924 16.0893 102.921 16.4915 102.921C21.2472 102.921 26.0028 102.914 30.7585 102.908C40.2698 102.895 49.7811 102.882 59.2923 102.921C61.8132 102.921 64.2268 102.569 65.4603 99.8717C66.7446 96.9854 67.9342 94.0475 69.1865 90.954C69.8169 89.3967 70.4632 87.8 71.1456 86.1509H19.9242C20.1406 85.5593 20.3219 85.0347 20.4898 84.55C20.7376 83.8331 20.9554 83.2036 21.2114 82.5741C22.669 78.8316 24.1357 75.0893 25.604 71.3427C27.7017 65.9907 29.8025 60.6303 31.8849 55.2496C33.4402 51.1451 33.2792 50.9107 29.6857 49.2688C29.3014 49.1008 28.9446 48.8725 28.359 48.4978C28.1271 48.3495 27.8596 48.1784 27.5403 47.9788C28.1049 47.9521 28.512 47.9251 28.8342 47.904C29.2158 47.8788 29.4777 47.8616 29.7393 47.8616C32.8071 47.885 35.8747 47.9109 38.9423 47.9367C51.2143 48.0398 63.4863 48.143 75.7583 48.0962C81.3697 48.0962 83.9466 48.1428 85.6256 46.8236C87.2045 45.5831 87.9896 43.1347 89.757 38.304C89.9353 37.8168 90.1319 37.3399 90.3279 36.8648C90.6038 36.1958 90.8785 35.53 91.0979 34.8444C91.3111 34.2233 91.4535 33.5508 91.6033 32.844Z" fill="white"/>
</svg>
