<svg width="55" height="65" viewBox="0 0 55 65" fill="none" xmlns="http://www.w3.org/2000/svg">
<path d="M45.9376 34.5669C45.8607 26.3552 52.9305 22.3602 53.2538 22.1743C49.2499 16.5612 43.0441 15.7943 40.8633 15.7331C35.651 15.2057 30.5952 18.7319 27.9401 18.7319C25.2319 18.7319 21.1431 15.7842 16.7366 15.8707C11.066 15.9548 5.76089 19.1116 2.85145 24.0138C-3.15304 34.0091 1.32519 48.6974 7.07792 56.7767C9.95557 60.7362 13.3183 65.1516 17.7196 64.996C22.0256 64.8281 23.6341 62.359 28.8305 62.359C33.9789 62.359 35.4893 64.996 39.9783 64.8969C44.5996 64.8281 47.509 60.9221 50.2859 56.9296C53.6114 52.397 54.9469 47.9281 55 47.6987C54.8941 47.663 46.0276 44.4068 45.9376 34.5669ZM37.4583 10.4184C39.7742 7.63342 41.3586 3.84481 40.9189 0C37.5667 0.142767 33.3749 2.22941 30.9608 4.95322C28.8251 7.35328 26.9171 11.2871 27.4101 14.9867C31.1754 15.2567 35.0416 13.1597 37.4583 10.4184Z" fill="white"/>
</svg>
